# AST/ASF file generated using VICON BodyLanguage
# -----------------------------------------------
:version 1.10
:name VICON
:units
  mass 1.0
  length 0.45
  angle deg
:documentation
   .ast/.asf automatically generated from VICON data using
   VICON BodyBuilder and BodyLanguage model FoxedUp or BRILLIANT.MOD
:root
   order TX TY TZ RX RY RZ
   axis XYZ
   position 0 0 0  
   orientation 0 0 0 
:bonedata
  begin
     id 1 
     name lhipjoint
     direction 0.541323 -0.757556 0.364798 
     length 2.47576 
     axis 0 0 0  XYZ
  end
  begin
     id 2 
     name lfemur
     direction 0.34202 -0.939693 0  
     length 7.46493  
     axis 0 0 20  XYZ
    dof rx ry rz
    limits (-160.0 20.0)
           (-70.0 70.0)
           (-60.0 70.0)
  end
  begin
     id 3 
     name ltibia
     direction 0.34202 -0.939693 0   
     length 7.73805   
     axis 0 0 20   XYZ
    dof rx
    limits (-10.0 170.0)
  end
  begin
     id 4 
     name lfoot
     direction 0.107174 -0.294458 0.949636   
     length 2.25864   
     axis -90 7.62852e-016 20   XYZ
    dof rx rz
    limits (-45.0 90.0)
           (-70.0 20.0)
  end
  begin
     id 5 
     name ltoes
     direction 1.53606e-011 -4.21934e-011 1   
     length 1.12451   
     axis -90 7.62852e-016 20   XYZ
    dof rx
    limits (-90.0 20.0)
  end
  begin
     id 6 
     name rhipjoint
     direction -0.524745 -0.766967 0.36933   
     length 2.44538  
     axis 0 0 0  XYZ 
  end
  begin
     id 7 
     name rfemur
     direction -0.34202 -0.939693 0   
     length 7.61604   
     axis 0 0 -20   XYZ
    dof rx ry rz
    limits (-160.0 20.0)
           (-70.0 70.0)
           (-70.0 60.0)
  end
  begin
     id 8 
     name rtibia
     direction -0.34202 -0.939693 0   
     length 7.61056   
     axis 0 0 -20   XYZ
    dof rx
    limits (-10.0 170.0)
 end
 begin
     id 9 
     name rfoot
     direction -0.12616 -0.346623 0.929482   
     length 2.46372  
     axis -90 -7.62852e-016 -20   XYZ
    dof rx rz
    limits (-45.0 90.0)
           (-20.0 70.0)
  end
  begin
     id 10 
     name rtoes
     direction -1.53531e-011 -4.22004e-011 1   
     length 1.21611   
     axis -90 -7.62852e-016 -20   XYZ
    dof rx
    limits (-90.0 20.0)
  end
  begin
     id 11 
     name lowerback
     direction -0.000778023 0.997293 -0.0735223   
     length 2.06139   
     axis 0 0 0   XYZ
    dof rx ry rz
    limits (-20.0 45.0)
           (-30.0 30.0)
           (-30.0 30.0)
  end
  begin
     id 12 
     name upperback
     direction 0.0222598 0.999722 -0.0078355   
     length 2.06383   
     axis 0 0 0   XYZ
    dof rx ry rz
    limits (-20.0 45.0)
           (-30.0 30.0)
           (-30.0 30.0)
  end
  begin
     id 13 
     name thorax
     direction 0.0219654 0.999405 0.0265994   
     length 2.07163   
     axis 0 0 0   XYZ
    dof rx ry rz
    limits (-20.0 45.0)
           (-30.0 30.0)
           (-30.0 30.0)
  end
  begin
     id 14 
     name lowerneck
     direction 0.0213282 0.988147 0.15202   
     length 1.75969   
     axis 0 0 0   XYZ
    dof rx ry rz
    limits (-20.0 45.0)
           (-30.0 30.0)
           (-30.0 30.0)
  end
  begin
     id 15 
     name upperneck
     direction -0.0546456 0.982624 -0.177379   
     length 1.79244   
     axis 0 0 0   XYZ
    dof rx ry rz
    limits (-20.0 45.0)
           (-30.0 30.0)
           (-30.0 30.0)
  end
  begin
     id 16
     name head
     direction -0.0199987 0.996855 -0.076686  
     length 1.80555  
     axis 0 0 0   XYZ
    dof rx ry rz
    limits (-20.0 45.0)
           (-30.0 30.0)
           (-30.0 30.0)
  end
  begin
     id 17 
     name lclavicle
     direction 0.929565 0.363219 -0.063096  
     length 3.55722  
     axis 0 0 0   XYZ
    dof ry rz
    limits (-20.0 10.0)
           (0.0 20.0)
  end
  begin
     id 18 
     name lhumerus
     direction 1 -4.48993e-011 -2.36203e-027   
     length 4.92785   
     axis 180 -30 -90   XYZ
    dof rx ry rz
    limits (-60.0 90.0)
           (-90.0 90.0)
           (-90.0 90.0)
  end
  begin
     id 19
     name lradius
     direction 1 -4.48947e-011 2.02997e-027   
     length 3.44052   
     axis 180 -30 -90   XYZ
    dof rx
    limits (-10.0 170.0)
  end
  begin
     id 20
     name lwrist
     direction 1 -4.48962e-011 1.45991e-027   
     length 1.72026   
     axis 1.49639e-024 90 90   XYZ
    dof ry
    limits (-180.0 0.0)
 end
  begin
     id 21 
     name lhand
     direction 1 -4.48984e-011 2.91906e-027   
     length 0.654326   
     axis -1.863e-015 90 90   XYZ
    dof rx rz
    limits (-90.0 90.0)
           (-45.0 45.0)
  end
  begin
     id 22 
     name lfingers
     direction 1 -4.48961e-011 5.83968e-027   
     length 0.527534   
     axis -3.72598e-015 90 90   XYZ
    dof rx
    limits (0.0 90.0)
  end
  begin
     id 23
     name lthumb
     direction 0.707107 -6.34963e-011 0.707107   
     length 0.757437   
     axis -90 45 -6.68868e-015   XYZ
    dof rx rz
    limits (-45.0 45.0)
           (-45.0 45.0)
  end
  begin
     id 24 
     name rclavicle
     direction -0.902944 0.422599 -0.0781198   
     length 3.54432  
     axis 0 0 0   XYZ 
    dof ry rz
    limits (-10.0 20.0)
           (-20.0 0.0)
  end
  begin
     id 25 
     name rhumerus
     direction -1 -4.48953e-011 -4.75835e-028  
     length 5.09181   
     axis 180 30 90   XYZ
    dof rx ry rz
    limits (-90.0 60.0)
           (-90.0 90.0)
           (-90.0 90.0)
  end
  begin
     id 26 
     name rradius
     direction -1 -4.48986e-011 -3.25889e-027   
     length 3.49865   
     axis 180 30 90   XYZ
    dof rx
    limits (-10.0 170.0)
  end
  begin
     id 27 
     name rwrist
     direction -1 -4.48963e-011 1.45989e-027   
     length 1.74933   
     axis 1.49639e-024 -90 -90   XYZ
    dof ry
    limits (-180.0 0.0)
  end
  begin
     id 28
     name rhand
     direction -1 -4.49003e-011 2.91844e-027   
     length 0.66641   
     axis -1.863e-015 -90 -90   XYZ
    dof rx rz
    limits (-90.0 90.0)
           (-45.0 45.0)
  end
  begin
     id 29
     name rfingers
     direction -1 -4.48973e-011 5.83886e-027   
     length 0.537277   
     axis -3.72598e-015 -90 -90   XYZ
    dof rx
    limits (0.0 90.0)
  end
  begin
     id 30
     name rthumb
     direction -0.707107 -6.34976e-011 0.707107   
     length 0.771425   
     axis -90 -45 6.68868e-015   XYZ
    dof rx rz
    limits (-45.0 45.0)
           (-45.0 45.0)
  end
:hierarchy
  begin
    root lhipjoint rhipjoint lowerback
    lhipjoint lfemur
    lfemur ltibia
    ltibia lfoot
    lfoot ltoes
    rhipjoint rfemur
    rfemur rtibia
    rtibia rfoot
    rfoot rtoes
    lowerback upperback
    upperback thorax
    thorax lowerneck lclavicle rclavicle
    lowerneck upperneck
    upperneck head
    lclavicle lhumerus
    lhumerus lradius
    lradius lwrist
    lwrist lhand lthumb
    lhand lfingers
    rclavicle rhumerus
    rhumerus rradius
    rradius rwrist
    rwrist rhand rthumb
    rhand rfingers
  end

#!OML:ASF H:\LiuWeirdWalks\Patient Classification 1\Patient 1\Session 1\male.ASF
:FULLY-SPECIFIED
:DEGREES
90
root 0.339782 17.8245 -31.9099 1.11971 19.6273 -1.68126
lowerback 3.41946 5.42493 4.58589
upperback -3.34313 7.46375 -1.47697
thorax -4.60223 3.5278 -4.58227
lowerneck -7.53675 5.46114 15.0566
upperneck 30.109 6.16704 -2.6038
head 11.719 4.3345 -2.72763
rclavicle -6.5425e-014 3.97569e-016
rhumerus -36.3466 -17.1114 -80.2525
rradius 28.1799
rwrist -5.6653
rhand -16.1917 -1.90499
rfingers 7.12502
rthumb 10.0152 -31.6467
lclavicle -6.5425e-014 3.97569e-016
lhumerus -34.4098 -2.19855 81.7098
lradius 23.2219
lwrist 6.7305
lhand -16.4379 -2.09707
lfingers 7.12502
lthumb 9.77769 27.6559
rfemur -4.65175 -7.87133 19.1442
rtibia 29.0494
rfoot -16.8311 -31.6073
rtoes 0.325452
lfemur -12.6302 -5.78492 -14.2715
ltibia 30.4272
lfoot -11.3318 13.0574
ltoes -8.58717
91
root 0.332374 17.8258 -31.9137 1.14608 19.2125 -1.67759
lowerback 3.51751 5.19102 4.68874
upperback -3.26758 7.15919 -1.48414
thorax -4.59809 3.3737 -4.63744
lowerneck -7.19096 5.26274 15.1154
upperneck 30.0101 5.93506 -2.66862
head 11.5896 4.22525 -2.80315
rclavicle -1.18426e-013 1.07344e-014
rhumerus -36.0362 -16.3865 -80.8706
rradius 28.6191
rwrist -6.10031
rhand -16.25 -1.85635
rfingers 7.12502
rthumb 9.95894 -31.6008
lclavicle -1.18426e-013 1.07344e-014
lhumerus -34.4791 -1.94775 81.7152
lradius 23.3381
lwrist 6.65409
lhand -16.2356 -2.01565
lfingers 7.12502
lthumb 9.97284 27.7281
rfemur -4.77517 -7.68247 19.1483
rtibia 29.1013
rfoot -16.7303 -31.4209
rtoes 0.206944
lfemur -12.5729 -5.70758 -14.2624
ltibia 30.4067
lfoot -11.2654 13.369
ltoes -8.55687
92
root 0.324742 17.8271 -31.9175 1.17034 18.7995 -1.69581
lowerback 3.55251 5.07528 4.70772
upperback -3.20624 7.00608 -1.46914
thorax -4.56981 3.29903 -4.62472
lowerneck -6.97022 4.96718 15.2387
upperneck 30.1692 5.48832 -2.56278
head 11.5658 4.05684 -2.84955
rclavicle -2.70099e-014 -1.98785e-014
rhumerus -35.8943 -15.8823 -81.2793
rradius 29.1082
rwrist -6.56189
rhand -16.3244 -1.73631
rfingers 7.12502
rthumb 9.88724 -31.4841
lclavicle -2.70099e-014 -1.98785e-014
lhumerus -34.5358 -1.99533 81.9068
lradius 23.4581
lwrist 6.59524
lhand -16.0043 -1.9939
lfingers 7.12502
lthumb 10.196 27.739
rfemur -4.90456 -7.48052 19.1812
rtibia 29.1522
rfoot -16.6244 -31.2513
rtoes 0.0867238
lfemur -12.5229 -5.63134 -14.2277
ltibia 30.3884
lfoot -11.2041 13.6784
ltoes -8.51733
93
root 0.316827 17.8284 -31.9215 1.20322 18.3895 -1.73005
lowerback 3.58839 4.95947 4.74273
upperback -3.14842 6.85411 -1.45166
thorax -4.5442 3.22428 -4.61853
lowerneck -6.75984 4.67746 15.3313
upperneck 30.2645 5.05098 -2.45308
head 11.5183 3.88615 -2.88662
rclavicle -2.15433e-014 3.57812e-015
rhumerus -35.7708 -15.3681 -81.6789
rradius 29.6041
rwrist -7.01086
rhand -16.4004 -1.60811
rfingers 7.12502
rthumb 9.81392 -31.3594
lclavicle -2.15433e-014 3.57812e-015
lhumerus -34.5913 -2.07075 82.1141
lradius 23.5997
lwrist 6.53311
lhand -15.8225 -1.98792
lfingers 7.12502
lthumb 10.3714 27.7363
rfemur -5.05077 -7.27214 19.2358
rtibia 29.2024
rfoot -16.5235 -31.0915
rtoes -0.0215372
lfemur -12.4921 -5.55374 -14.1732
ltibia 30.3732
lfoot -11.1435 13.9842
ltoes -8.48331
94
root 0.308742 17.8299 -31.9262 1.24606 18.0005 -1.77085
lowerback 3.59277 4.89371 4.72153
upperback -3.06883 6.76432 -1.41647
thorax -4.47942 3.18451 -4.56141
lowerneck -6.60563 4.33177 15.3357
upperneck 30.203 4.51161 -2.26072
head 11.4046 3.66002 -2.88817
rclavicle -7.08667e-014 -7.95139e-016
rhumerus -35.6529 -14.9691 -81.9739
rradius 30.1053
rwrist -7.43602
rhand -16.4705 -1.46447
rfingers 7.12502
rthumb 9.74621 -31.219
lclavicle -7.08667e-014 -7.95139e-016
lhumerus -34.5906 -2.29662 82.4295
lradius 23.7731
lwrist 6.52868
lhand -15.6349 -2.02778
lfingers 7.12502
lthumb 10.5523 27.6873
rfemur -5.21123 -7.07735 19.2994
rtibia 29.2528
rfoot -16.4291 -30.9379
rtoes -0.116994
lfemur -12.484 -5.49076 -14.1099
ltibia 30.3608
lfoot -11.077 14.2837
ltoes -8.4428
95
root 0.30063 17.8316 -31.9316 1.30555 17.6242 -1.7965
lowerback 3.60583 4.81117 4.70765
upperback -2.99742 6.65281 -1.39158
thorax -4.42834 3.13284 -4.5194
lowerneck -6.44371 3.99992 15.3292
upperneck 30.1227 3.99423 -2.05846
head 11.2856 3.44186 -2.87969
rclavicle -8.22472e-014 -3.97569e-015
rhumerus -35.5453 -14.5462 -82.273
rradius 30.5873
rwrist -7.79182
rhand -16.5442 -1.31796
rfingers 7.12502
rthumb 9.6751 -31.0758
lclavicle -8.22472e-014 -3.97569e-015
lhumerus -34.6216 -2.53331 82.7364
lradius 23.9971
lwrist 6.56047
lhand -15.4818 -2.05392
lfingers 7.12502
lthumb 10.7 27.6536
rfemur -5.38714 -6.90508 19.3446
rtibia 29.3069
rfoot -16.3453 -30.7736
rtoes -0.194351
lfemur -12.4921 -5.42466 -14.0624
ltibia 30.3475
lfoot -11.0136 14.5653
ltoes -8.39345
96
root 0.293202 17.8334 -31.9373 1.37611 17.2392 -1.8094
lowerback 3.71617 4.35743 5.09465
upperback -2.92688 6.06985 -1.46496
thorax -4.43415 2.82986 -4.78632
lowerneck -5.9689 3.95152 15.0223
upperneck 29.728 4.11807 -2.31815
head 11.036 3.41238 -2.91895
rclavicle -3.11843e-014 -1.19271e-015
rhumerus -35.1716 -13.3407 -83.1943
rradius 30.9146
rwrist -7.96534
rhand -16.5986 -1.15032
rfingers 7.12502
rthumb 9.62266 -30.9105
lclavicle -3.11843e-014 -1.19271e-015
lhumerus -34.8276 -1.95482 82.4501
lradius 24.3594
lwrist 6.68397
lhand -15.4041 -2.01674
lfingers 7.12502
lthumb 10.775 27.6869
rfemur -5.57497 -6.7454 19.3695
rtibia 29.3659
rfoot -16.2665 -30.587
rtoes -0.263517
lfemur -12.5034 -5.35418 -14.0317
ltibia 30.3304
lfoot -10.9508 14.8487
ltoes -8.32834
97
root 0.286493 17.8353 -31.943 1.45698 16.839 -1.80659
lowerback 3.81303 3.97679 5.39206
upperback -2.86895 5.58012 -1.52307
thorax -4.45299 2.57584 -4.99209
lowerneck -5.61985 3.85661 14.7331
upperneck 29.3843 4.12487 -2.50644
head 10.8225 3.34357 -2.94586
rclavicle -7.71781e-014 -9.93923e-015
rhumerus -34.9035 -12.2784 -83.9581
rradius 31.2465
rwrist -8.07632
rhand -16.6348 -0.971701
rfingers 7.12502
rthumb 9.5877 -30.7335
lclavicle -7.71781e-014 -9.93923e-015
lhumerus -35.0231 -1.53523 82.2768
lradius 24.7234
lwrist 6.8457
lhand -15.3348 -1.92514
lfingers 7.12502
lthumb 10.8418 27.775
rfemur -5.7736 -6.59254 19.3709
rtibia 29.4298
rfoot -16.1816 -30.3807
rtoes -0.338879
lfemur -12.5161 -5.27549 -14.0216
ltibia 30.3078
lfoot -10.8845 15.1352
ltoes -8.26714
98
root 0.280714 17.8372 -31.9483 1.5442 16.4265 -1.79065
lowerback 3.92399 3.58292 5.69421
upperback -2.82717 5.07459 -1.58547
thorax -4.5043 2.31215 -5.20582
lowerneck -5.24582 3.77657 14.4955
upperneck 29.0506 4.16542 -2.7677
head 10.6161 3.29025 -3.00367
rclavicle 4.37451e-014 2.22639e-014
rhumerus -34.6835 -11.1901 -84.7061
rradius 31.5493
rwrist -8.07379
rhand -16.6529 -0.787884
rfingers 7.12502
rthumb 9.57025 -30.5505
lclavicle 4.37451e-014 2.22639e-014
lhumerus -35.2614 -1.09983 82.0834
lradius 25.1261
lwrist 7.04635
lhand -15.2731 -1.7532
lfingers 7.12502
lthumb 10.9013 27.9438
rfemur -5.97456 -6.45069 19.3503
rtibia 29.4934
rfoot -16.0924 -30.1506
rtoes -0.417971
lfemur -12.5229 -5.19735 -14.0303
ltibia 30.2809
lfoot -10.8218 15.4323
ltoes -8.17567
99
root 0.275044 17.8393 -31.9529 1.63953 16.0174 -1.76887
lowerback 3.9924 3.31002 5.85421
upperback -2.78935 4.72137 -1.61507
thorax -4.5347 2.13018 -5.31026
lowerneck -4.99495 3.62136 14.3356
upperneck 28.8144 4.02032 -2.86448
head 10.4564 3.18309 -3.0326
rclavicle -2.88983e-014 -1.55052e-014
rhumerus -34.5643 -10.3812 -85.216
rradius 31.8568
rwrist -8.03441
rhand -16.6664 -0.605674
rfingers 7.12502
rthumb 9.55723 -30.3689
lclavicle -2.88983e-014 -1.55052e-014
lhumerus -35.4512 -0.951214 82.0851
lradius 25.5124
lwrist 7.29697
lhand -15.215 -1.56407
lfingers 7.12502
lthumb 10.9573 28.13
rfemur -6.17885 -6.31004 19.3241
rtibia 29.5542
rfoot -16.0073 -29.9225
rtoes -0.494561
lfemur -12.5352 -5.11995 -14.0453
ltibia 30.2502
lfoot -10.7586 15.7264
ltoes -8.08754
100
root 0.268521 17.8415 -31.9566 1.72378 15.6423 -1.75515
lowerback 3.99993 3.2429 5.7874
upperback -2.74277 4.6276 -1.58952
thorax -4.50916 2.0881 -5.23918
lowerneck -4.94179 3.31154 14.298
upperneck 28.7064 3.53173 -2.68374
head 10.3546 2.96588 -3.01542
rclavicle -8.38126e-014 1.39149e-014
rhumerus -34.5821 -10.0713 -85.3445
rradius 32.1994
rwrist -7.99468
rhand -16.6823 -0.390711
rfingers 7.12502
rthumb 9.54185 -30.1547
lclavicle -8.38126e-014 1.39149e-014
lhumerus -35.5507 -1.32118 82.4277
lradius 25.8827
lwrist 7.5976
lhand -15.1407 -1.37301
lfingers 7.12502
lthumb 11.0291 28.3172
rfemur -6.36122 -6.1615 19.3163
rtibia 29.6077
rfoot -15.9422 -29.7321
rtoes -0.557357
lfemur -12.5408 -5.0452 -14.0458
ltibia 30.2184
lfoot -10.7033 15.9886
ltoes -7.99954
101
root 0.261332 17.8436 -31.9595 1.81157 15.2878 -1.74586
lowerback 3.95936 3.3096 5.57974
upperback -2.69695 4.70265 -1.53093
thorax -4.44811 2.13642 -5.06074
lowerneck -5.03106 2.91902 14.3635
upperneck 28.7059 2.84587 -2.3401
head 10.3078 2.69069 -2.9753
rclavicle 7.97127e-014 -5.1684e-015
rhumerus -34.6956 -10.0938 -85.2242
rradius 32.5582
rwrist -7.97016
rhand -16.6795 -0.185069
rfingers 7.12502
rthumb 9.54456 -29.9489
lclavicle 7.97127e-014 -5.1684e-015
lhumerus -35.6019 -2.03281 82.9851
lradius 26.2301
lwrist 7.86961
lhand -15.0877 -1.23012
lfingers 7.12502
lthumb 11.0802 28.4574
rfemur -6.54022 -6.00777 19.3216
rtibia 29.6547
rfoot -15.8902 -29.5669
rtoes -0.608198
lfemur -12.5528 -4.96327 -14.0363
ltibia 30.1857
lfoot -10.6505 16.2273
ltoes -7.92906
